<?xml version="1.0"?>
<svg xmlns="http://www.w3.org/2000/svg" xmlns:xlink="http://www.w3.org/1999/xlink" version="1.1" id="Capa_1" x="0px" y="0px" viewBox="0 0 451.608 451.608" style="enable-background:new 0 0 451.608 451.608;" xml:space="preserve" width="512px" height="512px"><g><g>
	<g>
		<path d="M246.646,41.496h-2.048c-9.728,0-17.408,7.68-17.408,17.408v168.96H58.23c-9.728,0-17.408,7.68-17.408,17.408v1.024    c0,113.152,91.648,205.312,205.312,205.312c113.152,0,205.312-91.648,205.312-205.312    C452.47,133.656,360.31,41.496,246.646,41.496z" data-original="#000000" class="active-path" data-old_color="#000000" fill="#FFFFFF"/>
	</g>
</g><g>
	<g>
		<path d="M178.55,0.024c-1.024,0-1.536,0-2.56,0h-2.048C84.342,13.336,13.686,83.992,0.374,174.104v2.048    c-1.536,9.216,5.12,17.92,14.336,19.456c1.024,0,1.536,0,2.56,0h178.688V178.2V16.92C195.958,7.192,188.278-0.488,178.55,0.024z" data-original="#000000" class="active-path" data-old_color="#000000" fill="#FFFFFF"/>
	</g>
</g></g> </svg>
